<?xml version="1.0" standalone="no"?>
<!DOCTYPE svg PUBLIC "-//W3C//DTD SVG 20010904//EN"
 "http://www.w3.org/TR/2001/REC-SVG-20010904/DTD/svg10.dtd">
<svg version="1.0" xmlns="http://www.w3.org/2000/svg"
 width="512.000000pt" height="512.000000pt" viewBox="0 0 512.000000 512.000000"
 preserveAspectRatio="xMidYMid meet">
<metadata>
Created by potrace 1.14, written by Peter Selinger 2001-2017
</metadata>
<g transform="translate(0.000000,512.000000) scale(0.100000,-0.100000)"
fill="#000000" stroke="none">
<path d="M1641 4546 c-14 -8 -28 -22 -32 -32 -4 -11 -8 -199 -9 -419 -1 -220
-4 -393 -7 -385 -3 8 -15 23 -27 32 -19 15 -61 17 -433 18 -227 0 -424 -2
-438 -6 -58 -14 -55 47 -55 -1308 l0 -1245 -268 -3 -269 -3 -37 -29 c-61 -46
-67 -71 -66 -290 2 -215 7 -237 68 -284 l35 -27 2458 0 2458 0 27 21 c68 51
69 53 69 294 0 240 -1 243 -69 294 -26 20 -43 21 -297 24 l-269 3 0 1242 c0
683 -3 1252 -6 1265 -14 50 -30 52 -481 52 -438 -1 -435 0 -461 -45 -9 -16
-12 34 -13 220 -1 132 -1 242 -1 245 0 3 -8 17 -18 30 l-19 25 -428 3 c-449 3
-460 2 -481 -42 -8 -15 -11 20 -11 134 -1 85 -4 165 -7 178 -14 50 -31 52
-476 52 -328 -1 -418 -3 -437 -14z"/>
</g>
</svg>
